<?xml version="1.0" standalone="no"?>
<!DOCTYPE svg PUBLIC "-//W3C//DTD SVG 20010904//EN"
 "http://www.w3.org/TR/2001/REC-SVG-20010904/DTD/svg10.dtd">
<svg version="1.0" xmlns="http://www.w3.org/2000/svg"
 width="512.000000pt" height="512.000000pt" viewBox="0 0 512.000000 512.000000"
 preserveAspectRatio="xMidYMid meet">
<metadata>
Created by potrace 1.16, written by Peter Selinger 2001-2019
</metadata>
<g transform="translate(0.000000,512.000000) scale(0.100000,-0.100000)"
fill="#000000" stroke="none">
<path d="M1958 4273 c-16 -18 -18 -67 -3 -81 4 -4 4 4 1 18 -6 21 -5 22 4 7 7
-10 9 -25 6 -33 -4 -10 -2 -12 6 -8 8 5 9 2 5 -10 -4 -9 -3 -15 1 -12 12 7 54
-83 46 -96 -5 -7 -2 -8 6 -3 8 5 11 3 8 -6 -5 -13 27 -89 37 -89 3 0 -4 19
-15 43 -26 54 -13 35 56 -81 30 -51 52 -97 49 -102 -3 -5 0 -12 6 -16 8 -5 9
-3 4 6 -6 9 -4 11 4 6 7 -5 10 -14 7 -22 -3 -7 0 -16 6 -20 7 -5 8 -2 3 6 -6
9 -4 11 4 6 7 -5 10 -14 8 -20 -3 -7 6 -26 20 -42 l25 -29 -22 33 c-33 50 -16
38 23 -17 l35 -49 -22 -21 c-31 -29 -29 -51 3 -51 32 0 44 -8 60 -38 10 -18 9
-58 -4 -193 -9 -93 -20 -180 -24 -192 -21 -55 -76 -65 -120 -23 l-27 26 -14
-78 c-11 -61 -15 -72 -21 -52 -6 23 -7 23 -8 3 -1 -12 -6 -25 -13 -29 -7 -5
-8 -3 -3 6 6 10 4 12 -9 7 -9 -4 -15 -3 -12 1 4 8 -135 83 -152 82 -4 -1 27
-19 68 -40 41 -21 71 -39 65 -39 -14 0 -162 78 -150 79 12 1 -96 59 -110 59
-5 0 15 -13 45 -29 30 -16 51 -29 45 -29 -14 0 -122 58 -110 59 12 1 -56 39
-70 39 -5 0 6 -8 25 -19 19 -11 31 -19 25 -19 -14 0 -82 38 -70 39 12 1 -56
39 -70 39 -5 0 6 -9 25 -20 48 -28 30 -21 -163 60 -93 39 -248 100 -345 136
-97 35 -170 65 -162 65 18 2 -49 28 -70 28 -8 0 1 -6 20 -13 19 -7 28 -13 20
-13 -22 0 -88 26 -70 28 10 1 9 4 -5 10 -28 12 -56 11 -30 -1 16 -7 13 -8 -10
-3 -227 47 -268 54 -355 53 -55 0 -112 -6 -135 -14 -35 -12 -38 -12 -21 1 12
8 15 14 7 14 -18 0 -101 -84 -101 -101 0 -8 8 0 18 16 11 17 27 37 38 45 10 8
7 0 -8 -18 -58 -71 -75 -224 -38 -343 20 -67 64 -144 109 -193 14 -16 20 -26
14 -22 -21 12 -14 -9 10 -32 28 -26 45 -29 26 -4 -7 9 1 4 19 -12 36 -34 44
-49 10 -20 -21 17 -21 16 1 -9 25 -27 49 -38 35 -14 -5 8 -2 8 9 -2 20 -16 23
-25 5 -15 -7 4 -6 0 2 -9 21 -21 155 -94 146 -78 -5 8 4 7 30 -4 38 -16 64
-34 32 -22 -42 16 -51 17 -28 4 34 -20 81 -33 60 -17 -12 9 -10 10 10 4 14 -3
39 -12 57 -19 17 -7 35 -10 38 -7 4 4 -1 -9 -10 -28 -43 -82 -27 -250 30 -334
14 -21 25 -40 23 -42 -7 -7 -53 71 -69 119 -10 29 -18 43 -18 32 -1 -44 84
-185 110 -185 6 0 7 6 3 13 -5 8 -2 8 9 -2 20 -16 23 -26 5 -15 -10 6 -10 4 0
-8 16 -20 120 -67 163 -73 33 -5 32 -5 -6 9 -53 19 -44 19 40 1 90 -19 223
-19 349 0 55 8 102 13 104 10 3 -3 -6 -5 -19 -6 -13 0 -18 -3 -11 -6 14 -5
157 35 150 43 -3 2 -24 -3 -48 -11 -23 -8 -48 -15 -54 -14 -6 0 18 11 54 23
36 13 98 40 138 60 39 20 72 34 72 31 0 -3 -35 -23 -77 -44 -43 -22 -75 -40
-70 -41 4 0 43 18 87 40 44 22 80 37 81 33 1 -5 4 3 8 17 4 14 12 24 18 23 5
-1 28 30 50 70 l40 72 595 3 595 2 34 -62 c19 -34 48 -75 64 -92 17 -16 24
-26 18 -22 -8 4 -13 1 -13 -9 0 -13 4 -14 21 -4 17 9 20 8 14 -2 -6 -9 -3 -11
9 -6 11 5 15 3 10 -5 -5 -8 -2 -9 9 -5 10 4 16 2 14 -5 -1 -6 4 -13 12 -16 8
-3 11 0 7 7 -5 7 -1 9 8 5 9 -3 14 -9 11 -13 -2 -4 12 -15 31 -24 48 -23 57
-21 14 4 -37 21 -26 19 54 -13 26 -10 100 -28 163 -38 190 -33 356 -24 477 25
32 13 54 19 49 14 -5 -5 -32 -18 -59 -29 -27 -10 -42 -19 -34 -19 25 -1 122
48 116 58 -4 5 -1 13 5 17 8 4 9 3 5 -4 -4 -7 -3 -12 1 -12 13 0 84 75 78 82
-4 3 2 23 13 45 23 45 42 129 42 181 -1 20 -9 61 -19 90 -20 58 -19 66 3 25
l14 -28 -1 27 c-1 16 -6 28 -12 29 -5 0 14 9 44 20 30 10 57 17 59 14 3 -3 -1
-5 -8 -5 -7 0 -11 -2 -8 -5 3 -3 24 2 47 11 23 9 40 19 37 21 -2 3 -14 -1 -26
-7 -12 -6 -24 -10 -26 -7 -3 2 18 14 46 25 28 12 48 17 44 11 -3 -6 17 1 45
16 29 14 49 30 46 35 -3 5 0 12 6 16 8 4 9 3 5 -4 -11 -18 10 -14 25 5 10 11
10 14 2 9 -19 -11 -16 -1 4 15 11 10 14 10 9 2 -14 -24 10 -13 35 14 l24 28
-25 -20 -25 -20 24 28 c24 27 38 36 26 17 -12 -19 12 -10 33 13 24 26 29 42
10 31 -7 -4 -1 6 13 22 47 51 89 127 111 198 36 119 15 277 -45 346 -17 18
-17 21 -3 10 11 -8 27 -28 38 -45 10 -16 18 -24 18 -16 0 17 -83 101 -101 101
-8 0 -5 -6 7 -14 17 -13 14 -13 -21 -1 -23 8 -80 14 -135 14 -87 1 -128 -6
-355 -53 -23 -5 -26 -4 -10 3 26 12 -2 13 -30 1 -14 -6 -15 -9 -5 -10 18 -2
-48 -28 -70 -28 -8 0 1 6 20 13 19 7 28 13 20 13 -21 0 -88 -26 -70 -28 8 0
-65 -30 -162 -65 -97 -36 -252 -97 -345 -136 -193 -81 -211 -88 -163 -60 19
11 31 20 25 20 -14 0 -82 -38 -70 -39 12 -1 -56 -39 -70 -39 -5 0 6 8 25 19
19 11 31 19 25 19 -14 0 -82 -38 -70 -39 12 -1 -96 -59 -110 -59 -5 0 15 13
45 29 95 50 47 33 -95 -35 -76 -36 -141 -65 -146 -65 -4 0 -9 6 -12 13 -2 6
-2 -1 0 -18 3 -30 3 -30 -8 -5 -6 14 -14 66 -18 115 l-6 90 -23 -42 c-36 -69
-80 -89 -122 -55 -24 20 -43 125 -55 319 -7 104 -6 112 14 132 11 11 32 21 45
21 28 0 28 14 3 50 -15 22 -22 21 -18 -3 1 -5 -3 -6 -9 -2 -10 6 24 65 37 65
3 0 -1 -8 -8 -17 -13 -16 -12 -17 3 -4 10 7 16 17 13 21 -3 5 29 61 70 125 93
146 207 369 203 398 -2 13 -13 24 -28 28 -21 6 -22 7 -5 8 26 1 45 -17 45 -41
0 -10 -25 -68 -55 -128 -30 -61 -53 -110 -50 -110 9 0 115 219 115 238 0 22
-30 52 -52 52 -11 0 -36 -40 -72 -116 -31 -65 -60 -113 -66 -109 -5 3 -8 0 -5
-7 5 -12 -84 -172 -107 -193 -8 -7 -9 -6 -3 5 5 8 4 12 0 7 -5 -4 -9 -15 -10
-25 -1 -9 -23 -47 -49 -84 l-48 -66 -42 15 c-22 8 -75 17 -116 20 -72 5 -97 1
-200 -33 -8 -3 -6 0 5 7 10 7 37 18 60 25 22 7 31 13 20 13 -37 0 -122 -43
-117 -59 7 -23 -59 65 -132 177 -64 98 -206 360 -206 379 1 5 12 -11 25 -36
29 -54 33 -45 5 10 -11 22 -26 39 -32 37 -7 -1 -12 5 -13 13 0 22 -38 24 -57
3z"/>
<path d="M1856 2272 c-9 -32 -16 -66 -16 -75 0 -16 52 -17 720 -17 l721 0 -7
38 c-4 20 -12 53 -18 72 l-11 35 -686 3 -686 2 -17 -58z"/>
<path d="M1845 1968 c4 -18 11 -50 16 -70 l10 -38 693 0 693 0 12 57 c6 31 11
62 11 70 0 11 -127 13 -721 13 l-721 0 7 -32z"/>
<path d="M1906 1745 c-5 -15 28 -95 40 -95 2 0 0 9 -6 19 -22 42 -8 34 16 -9
14 -25 35 -61 46 -80 l20 -35 -22 25 -22 25 14 -25 15 -25 394 -3 c217 -1 460
-3 542 -5 l147 -2 -27 -40 c-15 -22 -20 -34 -11 -28 8 7 17 10 20 7 3 -3 5 3
5 13 -1 9 3 18 10 18 6 0 15 4 20 9 5 5 2 6 -6 1 -9 -5 -12 -3 -9 6 3 8 10 13
16 12 6 -2 16 7 22 20 11 21 10 21 -4 3 -27 -33 -18 -10 19 51 19 32 35 61 35
65 0 5 -275 9 -612 10 l-612 3 -22 38 c-16 30 -23 35 -28 22z"/>
<path d="M2189 1368 c-8 -29 0 -44 48 -88 80 -73 121 -103 132 -96 5 4 13 1
17 -5 5 -8 3 -9 -7 -4 -12 8 -12 6 0 -8 15 -19 36 -23 25 -5 -4 7 -3 8 5 4 6
-4 9 -11 6 -16 -3 -5 3 -14 15 -20 11 -6 26 -23 34 -38 9 -15 15 -22 16 -15 0
6 -12 26 -27 45 l-27 33 27 -24 c16 -15 42 -64 68 -129 61 -156 59 -153 88
-149 13 2 27 10 29 18 3 11 1 11 -7 -1 -20 -28 -11 1 36 126 26 68 50 120 53
114 4 -6 14 -1 26 12 19 22 19 23 -1 8 -18 -14 -19 -14 -6 2 7 10 18 15 23 12
10 -6 201 175 218 207 5 9 -39 -31 -98 -90 -105 -105 -105 -105 -14 -10 50 53
92 101 92 108 0 8 -103 11 -385 11 -212 0 -385 -1 -386 -2z"/>
</g>
</svg>
